<?xml version="1.0" encoding="UTF-8"?>
<svg id="Capa_1" data-name="Capa 1" xmlns="http://www.w3.org/2000/svg" viewBox="0 0 308 262">
  <defs>
    <style>
      .cls-1 {
        stroke-width: 11px;
      }

      .cls-1, .cls-2, .cls-3, .cls-4 {
        stroke-miterlimit: 10;
      }

      .cls-1, .cls-3 {
        fill: none;
        stroke: #1c83ba;
        stroke-linecap: round;
      }

      .cls-2 {
        fill: white;
        stroke: #999;
      }

      .cls-3 {
        stroke-width: 5px;
      }

      .cls-4 {
        fill: #1c83ba;
      }
    </style>
  </defs>
  <g>
    <line class="cls-1" x1="39.15" y1="44.63" x2="115.54" y2="121.02"/>
    <line class="cls-1" x1="38.96" y1="199.61" x2="115.35" y2="123.22"/>
  </g>
  <path class="cls-2" d="M135.65,202.02c-1.98,0-5.19-.55-5.19-2.59,0-2.59-.04-6.05,0-6.49v-7.78c-2.59,0-4.7-1.27-5.65-1.69l-21.83-9.69c-.93-.41-2.02-.2-2.73,.53l-23.57,24.22c-3.32,3.41-8.07,5.01-12.77,4.32h0c-1.96-.29-2.77-2.68-1.38-4.1l66.27-68c.71-.73,1.8-.94,2.72-.52l6.48,2.88c.93,.41,1.51,1.37,1.44,2.39l1.39,65.24c-1.3,1.3-2.59,1.3-5.19,1.3Zm-25.5-33.64l13.8,6.13c1.52,.68,6.37,.63,6.52-1.03l-1.08-24.16c.2-2.3-2.63-3.56-4.2-1.86l-15.83,17.05c-1.13,1.22-.73,3.19,.79,3.87Z"/>
  <path class="cls-2" d="M146.42,197.91v-61.36c0-1.42,1.15-2.56,2.56-2.56h21.06c4.3,0,7.99,.35,11.06,1.04,3.07,.69,5.59,1.84,7.55,3.46,1.96,1.61,3.38,3.69,4.26,6.22,.88,2.54,1.33,5.65,1.33,9.33-.08,4.07-.58,7.22-1.5,9.45-.54,1.31-1.38,2.49-2.53,3.56s-1.01,2.99,.3,3.95c.28,.2,.54,.41,.79,.62,1.04,.88,1.86,1.94,2.48,3.17,.61,1.23,1.04,2.67,1.27,4.32,.23,1.65,.35,3.63,.35,5.93v12.88c0,1.42-1.15,2.56-2.56,2.56h-4.32c-1.42,0-2.56-1.15-2.56-2.56v-13.57c0-2.38-.21-4.28-.63-5.7-.42-1.42-1.14-2.52-2.13-3.29-1-.77-2.29-1.28-3.86-1.55-1.57-.27-3.48-.4-5.7-.4h-15.18c-1.42,0-2.56,1.15-2.56,2.56v21.95c0,1.42-1.15,2.56-2.56,2.56h-4.32c-1.42,0-2.56-1.15-2.56-2.56Zm9.45-53.52v18.72c0,1.42,1.15,2.56,2.56,2.56h14.03c2.61,0,4.72-.21,6.34-.63,1.61-.42,2.86-1.07,3.75-1.96s1.48-2.02,1.79-3.4c.31-1.38,.46-3.03,.46-4.96,0-2.92-.33-5.22-.98-6.91-.65-1.69-1.61-2.98-2.88-3.86-1.27-.88-2.81-1.46-4.61-1.73-1.81-.27-3.86-.4-6.17-.4h-11.72c-1.42,0-2.56,1.15-2.56,2.56Z"/>
  <path class="cls-2" d="M212.02,133.99h0c2.61,0,4.72,2.12,4.72,4.72v57.04c0,2.61-2.12,4.72-4.72,4.72h0c-2.61,0-4.72-2.12-4.72-4.72v-57.04c0-2.61,2.12-4.72,4.72-4.72Z"/>
  <path class="cls-2" d="M277.18,177.66c0,7.45-2.25,13.25-6.74,17.4-4.49,4.15-11.08,6.22-19.76,6.22s-15.27-2.07-19.76-6.22c-4.49-4.15-6.74-9.95-6.74-17.4v-20.63c0-7.45,2.25-13.25,6.74-17.4,4.49-4.15,11.08-6.22,19.76-6.22s15.27,2.07,19.76,6.22c4.49,4.15,6.74,9.95,6.74,17.4v20.63Zm-9.45-19.47c0-3.3-.46-6.05-1.38-8.24-.92-2.19-2.15-3.94-3.69-5.24-1.54-1.3-3.32-2.23-5.36-2.77-2.04-.54-4.21-.81-6.51-.81h-.23c-2.31,0-4.48,.27-6.51,.81-2.04,.54-3.82,1.46-5.36,2.77-1.54,1.31-2.76,3.05-3.69,5.24-.92,2.19-1.38,4.94-1.38,8.24v18.32c0,3.3,.46,6.05,1.38,8.24,.92,2.19,2.15,3.94,3.69,5.24,1.54,1.31,3.32,2.23,5.36,2.77,2.03,.54,4.21,.81,6.51,.81h.23c2.3,0,4.47-.27,6.51-.81,2.03-.54,3.82-1.46,5.36-2.77,1.54-1.3,2.77-3.05,3.69-5.24,.92-2.19,1.38-4.93,1.38-8.24v-18.32Z"/>
  <circle class="cls-4" cx="212.19" cy="122.89" r="7"/>
  <line class="cls-3" x1="59.75" y1="215.79" x2="277.06" y2="215.79"/>
</svg>