<svg width="308" height="262" viewBox="0 0 308 262" fill="none" xmlns="http://www.w3.org/2000/svg">
<g id="logo 1">
<g id="D">
<path id="Vector" d="M39.15 44.63L115.54 121.02" stroke="#1C83BA" stroke-width="11" stroke-miterlimit="10" stroke-linecap="round"/>
<path id="Vector_2" d="M38.96 199.61L115.35 123.22" stroke="#1C83BA" stroke-width="11" stroke-miterlimit="10" stroke-linecap="round"/>
</g>
<path id="a" d="M135.65 202.02C133.67 202.02 130.46 201.47 130.46 199.43C130.46 196.84 130.42 193.38 130.46 192.94V185.16C127.87 185.16 125.76 183.89 124.81 183.47L102.98 173.78C102.05 173.37 100.96 173.58 100.25 174.31L76.68 198.53C73.36 201.94 68.61 203.54 63.91 202.85C61.95 202.56 61.14 200.17 62.53 198.75L128.8 130.75C129.51 130.02 130.6 129.81 131.52 130.23L138 133.11C138.93 133.52 139.51 134.48 139.44 135.5L140.83 200.74C139.53 202.04 138.24 202.04 135.64 202.04L135.65 202.02ZM110.15 168.38L123.95 174.51C125.47 175.19 130.32 175.14 130.47 173.48L129.39 149.32C129.59 147.02 126.76 145.76 125.19 147.46L109.36 164.51C108.23 165.73 108.63 167.7 110.15 168.38Z" fill="white" stroke="#999999" stroke-miterlimit="10"/>
<path id="r" d="M146.42 197.91V136.55C146.42 135.13 147.57 133.99 148.98 133.99H170.04C174.34 133.99 178.03 134.34 181.1 135.03C184.17 135.72 186.69 136.87 188.65 138.49C190.61 140.1 192.03 142.18 192.91 144.71C193.79 147.25 194.24 150.36 194.24 154.04C194.16 158.11 193.66 161.26 192.74 163.49C192.2 164.8 191.36 165.98 190.21 167.05C189.06 168.12 189.2 170.04 190.51 171C190.79 171.2 191.05 171.41 191.3 171.62C192.34 172.5 193.16 173.56 193.78 174.79C194.39 176.02 194.82 177.46 195.05 179.11C195.28 180.76 195.4 182.74 195.4 185.04V197.92C195.4 199.34 194.25 200.48 192.84 200.48H188.52C187.1 200.48 185.96 199.33 185.96 197.92V184.35C185.96 181.97 185.75 180.07 185.33 178.65C184.91 177.23 184.19 176.13 183.2 175.36C182.2 174.59 180.91 174.08 179.34 173.81C177.77 173.54 175.86 173.41 173.64 173.41H158.46C157.04 173.41 155.9 174.56 155.9 175.97V197.92C155.9 199.34 154.75 200.48 153.34 200.48H149.02C147.6 200.48 146.46 199.33 146.46 197.92L146.42 197.91ZM155.87 144.39V163.11C155.87 164.53 157.02 165.67 158.43 165.67H172.46C175.07 165.67 177.18 165.46 178.8 165.04C180.41 164.62 181.66 163.97 182.55 163.08C183.44 162.19 184.03 161.06 184.34 159.68C184.65 158.3 184.8 156.65 184.8 154.72C184.8 151.8 184.47 149.5 183.82 147.81C183.17 146.12 182.21 144.83 180.94 143.95C179.67 143.07 178.13 142.49 176.33 142.22C174.52 141.95 172.47 141.82 170.16 141.82H158.44C157.02 141.82 155.88 142.97 155.88 144.38L155.87 144.39Z" fill="white" stroke="#999999" stroke-miterlimit="10"/>
<path id="i" d="M212.02 133.99C214.63 133.99 216.74 136.11 216.74 138.71V195.75C216.74 198.36 214.62 200.47 212.02 200.47C209.41 200.47 207.3 198.35 207.3 195.75V138.71C207.3 136.1 209.42 133.99 212.02 133.99Z" fill="white" stroke="#999999" stroke-miterlimit="10"/>
<path id="o" d="M277.18 177.66C277.18 185.11 274.93 190.91 270.44 195.06C265.95 199.21 259.36 201.28 250.68 201.28C242 201.28 235.41 199.21 230.92 195.06C226.43 190.91 224.18 185.11 224.18 177.66V157.03C224.18 149.58 226.43 143.78 230.92 139.63C235.41 135.48 242 133.41 250.68 133.41C259.36 133.41 265.95 135.48 270.44 139.63C274.93 143.78 277.18 149.58 277.18 157.03V177.66ZM267.73 158.19C267.73 154.89 267.27 152.14 266.35 149.95C265.43 147.76 264.2 146.01 262.66 144.71C261.12 143.41 259.34 142.48 257.3 141.94C255.26 141.4 253.09 141.13 250.79 141.13H250.56C248.25 141.13 246.08 141.4 244.05 141.94C242.01 142.48 240.23 143.4 238.69 144.71C237.15 146.02 235.93 147.76 235 149.95C234.08 152.14 233.62 154.89 233.62 158.19V176.51C233.62 179.81 234.08 182.56 235 184.75C235.92 186.94 237.15 188.69 238.69 189.99C240.23 191.3 242.01 192.22 244.05 192.76C246.08 193.3 248.26 193.57 250.56 193.57H250.79C253.09 193.57 255.26 193.3 257.3 192.76C259.33 192.22 261.12 191.3 262.66 189.99C264.2 188.69 265.43 186.94 266.35 184.75C267.27 182.56 267.73 179.82 267.73 176.51V158.19Z" fill="white" stroke="#999999" stroke-miterlimit="10"/>
<path id="punto_i" d="M212.19 129.89C216.056 129.89 219.19 126.756 219.19 122.89C219.19 119.024 216.056 115.89 212.19 115.89C208.324 115.89 205.19 119.024 205.19 122.89C205.19 126.756 208.324 129.89 212.19 129.89Z" fill="#1C83BA"/>
<path id="subrayado" d="M59.75 215.79H277.06" stroke="#1C83BA" stroke-width="5" stroke-miterlimit="10" stroke-linecap="round"/>
</g>
</svg>
